<svg id="visual" viewBox="0 0 900 600" width="900" height="600" xmlns="http://www.w3.org/2000/svg" xmlns:xlink="http://www.w3.org/1999/xlink" version="1.1"><rect x="0" y="0" width="900" height="600" fill="#d99947"></rect><path d="M0 388L129 308L257 301L386 346L514 282L643 249L771 410L900 331L900 601L771 601L643 601L514 601L386 601L257 601L129 601L0 601Z" fill="#d34115"></path><path d="M0 416L129 401L257 368L386 409L514 328L643 371L771 370L900 400L900 601L771 601L643 601L514 601L386 601L257 601L129 601L0 601Z" fill="#e33252"></path><path d="M0 438L129 334L257 428L386 342L514 393L643 343L771 376L900 380L900 601L771 601L643 601L514 601L386 601L257 601L129 601L0 601Z" fill="#de3f86"></path><path d="M0 437L129 452L257 431L386 487L514 418L643 411L771 450L900 459L900 601L771 601L643 601L514 601L386 601L257 601L129 601L0 601Z" fill="#c65ab3"></path><path d="M0 453L129 492L257 464L386 504L514 451L643 493L771 505L900 463L900 601L771 601L643 601L514 601L386 601L257 601L129 601L0 601Z" fill="#9d74d1"></path><path d="M0 503L129 518L257 540L386 480L514 497L643 484L771 475L900 506L900 601L771 601L643 601L514 601L386 601L257 601L129 601L0 601Z" fill="#6a89de"></path><path d="M0 537L129 575L257 550L386 521L514 563L643 566L771 565L900 548L900 601L771 601L643 601L514 601L386 601L257 601L129 601L0 601Z" fill="#3498db"></path></svg>