<svg id="visual" viewBox="0 0 900 600" width="900" height="600" xmlns="http://www.w3.org/2000/svg" xmlns:xlink="http://www.w3.org/1999/xlink" version="1.1"><g stroke-width="1" stroke-linejoin="bevel"><path d="M414 325L438 413L513 311Z" fill="#205a7a" stroke="#205a7a"></path><path d="M438 413L486 432L513 311Z" fill="#205a7a" stroke="#205a7a"></path><path d="M612 369L592 309L513 311Z" fill="#081a28" stroke="#081a28"></path><path d="M486 432L612 369L513 311Z" fill="#15384f" stroke="#15384f"></path><path d="M438 413L496 499L486 432Z" fill="#0c2435" stroke="#0c2435"></path><path d="M486 432L624 465L612 369Z" fill="#0c2435" stroke="#0c2435"></path><path d="M570 203L471 212L513 311Z" fill="#112e42" stroke="#112e42"></path><path d="M513 311L471 212L414 325Z" fill="#297ea6" stroke="#297ea6"></path><path d="M418 203L335 275L414 325Z" fill="#15384f" stroke="#15384f"></path><path d="M414 325L316 430L438 413Z" fill="#1d4e6b" stroke="#1d4e6b"></path><path d="M438 413L377 533L496 499Z" fill="#15384f" stroke="#15384f"></path><path d="M471 212L418 203L414 325Z" fill="#297ea6" stroke="#297ea6"></path><path d="M335 275L316 430L414 325Z" fill="#1d4e6b" stroke="#1d4e6b"></path><path d="M703 287L570 203L592 309Z" fill="#1d4e6b" stroke="#1d4e6b"></path><path d="M592 309L570 203L513 311Z" fill="#1d4e6b" stroke="#1d4e6b"></path><path d="M471 212L417 105L418 203Z" fill="#19435d" stroke="#19435d"></path><path d="M496 499L624 465L486 432Z" fill="#277297" stroke="#277297"></path><path d="M316 430L377 533L438 413Z" fill="#0c2435" stroke="#0c2435"></path><path d="M496 499L604 600L624 465Z" fill="#19435d" stroke="#19435d"></path><path d="M316 430L307 520L377 533Z" fill="#0c2435" stroke="#0c2435"></path><path d="M331 138L330 167L418 203Z" fill="#0c2435" stroke="#0c2435"></path><path d="M418 203L330 167L335 275Z" fill="#246688" stroke="#246688"></path><path d="M186 319L224 432L316 430Z" fill="#246688" stroke="#246688"></path><path d="M316 430L224 484L307 520Z" fill="#112e42" stroke="#112e42"></path><path d="M431 600L496 499L377 533Z" fill="#1d4e6b" stroke="#1d4e6b"></path><path d="M431 600L482 600L496 499Z" fill="#297ea6" stroke="#297ea6"></path><path d="M612 369L703 287L592 309Z" fill="#277297" stroke="#277297"></path><path d="M716 389L703 287L612 369Z" fill="#205a7a" stroke="#205a7a"></path><path d="M260 600L431 600L377 533Z" fill="#00101c" stroke="#00101c"></path><path d="M675 511L716 389L624 465Z" fill="#19435d" stroke="#19435d"></path><path d="M624 465L716 389L612 369Z" fill="#112e42" stroke="#112e42"></path><path d="M186 319L316 430L335 275Z" fill="#19435d" stroke="#19435d"></path><path d="M604 600L675 511L624 465Z" fill="#19435d" stroke="#19435d"></path><path d="M537 99L417 105L471 212Z" fill="#19435d" stroke="#19435d"></path><path d="M537 99L471 212L570 203Z" fill="#1d4e6b" stroke="#1d4e6b"></path><path d="M417 105L331 138L418 203Z" fill="#1d4e6b" stroke="#1d4e6b"></path><path d="M220 198L186 319L335 275Z" fill="#081a28" stroke="#081a28"></path><path d="M609 68L537 99L570 203Z" fill="#246688" stroke="#246688"></path><path d="M224 432L224 484L316 430Z" fill="#19435d" stroke="#19435d"></path><path d="M307 520L260 600L377 533Z" fill="#277297" stroke="#277297"></path><path d="M482 600L604 600L496 499Z" fill="#0c2435" stroke="#0c2435"></path><path d="M220 198L335 275L330 167Z" fill="#0c2435" stroke="#0c2435"></path><path d="M224 432L112 528L224 484Z" fill="#205a7a" stroke="#205a7a"></path><path d="M331 138L220 198L330 167Z" fill="#00101c" stroke="#00101c"></path><path d="M825 288L722 198L703 287Z" fill="#19435d" stroke="#19435d"></path><path d="M703 287L722 198L570 203Z" fill="#15384f" stroke="#15384f"></path><path d="M722 198L673 113L570 203Z" fill="#19435d" stroke="#19435d"></path><path d="M224 484L260 600L307 520Z" fill="#081a28" stroke="#081a28"></path><path d="M673 113L609 68L570 203Z" fill="#1d4e6b" stroke="#1d4e6b"></path><path d="M537 99L491 0L417 105Z" fill="#277297" stroke="#277297"></path><path d="M604 600L687 600L675 511Z" fill="#19435d" stroke="#19435d"></path><path d="M675 511L800 475L716 389Z" fill="#0c2435" stroke="#0c2435"></path><path d="M687 600L800 475L675 511Z" fill="#0c2435" stroke="#0c2435"></path><path d="M716 389L825 288L703 287Z" fill="#1d4e6b" stroke="#1d4e6b"></path><path d="M800 475L821 383L716 389Z" fill="#205a7a" stroke="#205a7a"></path><path d="M609 68L491 0L537 99Z" fill="#277297" stroke="#277297"></path><path d="M417 105L373 0L331 138Z" fill="#15384f" stroke="#15384f"></path><path d="M331 138L165 63L220 198Z" fill="#1d4e6b" stroke="#1d4e6b"></path><path d="M821 383L825 288L716 389Z" fill="#277297" stroke="#277297"></path><path d="M722 198L770 63L673 113Z" fill="#00101c" stroke="#00101c"></path><path d="M86 239L106 304L186 319Z" fill="#0c2435" stroke="#0c2435"></path><path d="M186 319L92 386L224 432Z" fill="#297ea6" stroke="#297ea6"></path><path d="M224 484L176 600L260 600Z" fill="#246688" stroke="#246688"></path><path d="M491 0L373 0L417 105Z" fill="#15384f" stroke="#15384f"></path><path d="M220 198L86 239L186 319Z" fill="#112e42" stroke="#112e42"></path><path d="M106 304L92 386L186 319Z" fill="#081a28" stroke="#081a28"></path><path d="M112 528L176 600L224 484Z" fill="#112e42" stroke="#112e42"></path><path d="M373 0L313 0L331 138Z" fill="#297ea6" stroke="#297ea6"></path><path d="M609 68L636 0L491 0Z" fill="#081a28" stroke="#081a28"></path><path d="M673 0L636 0L609 68Z" fill="#205a7a" stroke="#205a7a"></path><path d="M673 0L609 68L673 113Z" fill="#1d4e6b" stroke="#1d4e6b"></path><path d="M92 386L112 528L224 432Z" fill="#1d4e6b" stroke="#1d4e6b"></path><path d="M130 98L86 239L220 198Z" fill="#277297" stroke="#277297"></path><path d="M0 330L0 379L92 386Z" fill="#112e42" stroke="#112e42"></path><path d="M900 202L831 179L825 288Z" fill="#081a28" stroke="#081a28"></path><path d="M825 288L831 179L722 198Z" fill="#246688" stroke="#246688"></path><path d="M770 63L673 0L673 113Z" fill="#00101c" stroke="#00101c"></path><path d="M831 179L770 63L722 198Z" fill="#19435d" stroke="#19435d"></path><path d="M234 0L165 63L331 138Z" fill="#1d4e6b" stroke="#1d4e6b"></path><path d="M165 63L130 98L220 198Z" fill="#0c2435" stroke="#0c2435"></path><path d="M313 0L234 0L331 138Z" fill="#205a7a" stroke="#205a7a"></path><path d="M687 600L829 600L800 475Z" fill="#00101c" stroke="#00101c"></path><path d="M800 475L900 427L821 383Z" fill="#15384f" stroke="#15384f"></path><path d="M821 383L900 282L825 288Z" fill="#246688" stroke="#246688"></path><path d="M900 491L900 427L800 475Z" fill="#277297" stroke="#277297"></path><path d="M900 427L900 282L821 383Z" fill="#0c2435" stroke="#0c2435"></path><path d="M900 69L789 0L770 63Z" fill="#19435d" stroke="#19435d"></path><path d="M829 600L900 491L800 475Z" fill="#1d4e6b" stroke="#1d4e6b"></path><path d="M900 282L900 202L825 288Z" fill="#19435d" stroke="#19435d"></path><path d="M0 491L112 528L92 386Z" fill="#19435d" stroke="#19435d"></path><path d="M0 491L73 600L112 528Z" fill="#277297" stroke="#277297"></path><path d="M112 528L73 600L176 600Z" fill="#15384f" stroke="#15384f"></path><path d="M0 330L92 386L106 304Z" fill="#0c2435" stroke="#0c2435"></path><path d="M0 330L106 304L86 239Z" fill="#277297" stroke="#277297"></path><path d="M0 238L0 330L86 239Z" fill="#297ea6" stroke="#297ea6"></path><path d="M900 69L770 63L831 179Z" fill="#15384f" stroke="#15384f"></path><path d="M770 63L789 0L673 0Z" fill="#081a28" stroke="#081a28"></path><path d="M0 121L0 238L86 239Z" fill="#277297" stroke="#277297"></path><path d="M0 379L0 491L92 386Z" fill="#081a28" stroke="#081a28"></path><path d="M234 0L129 0L165 63Z" fill="#00101c" stroke="#00101c"></path><path d="M165 63L129 0L130 98Z" fill="#19435d" stroke="#19435d"></path><path d="M130 98L0 121L86 239Z" fill="#15384f" stroke="#15384f"></path><path d="M829 600L900 600L900 491Z" fill="#15384f" stroke="#15384f"></path><path d="M900 202L900 69L831 179Z" fill="#112e42" stroke="#112e42"></path><path d="M0 0L0 121L130 98Z" fill="#0c2435" stroke="#0c2435"></path><path d="M0 491L0 600L73 600Z" fill="#1d4e6b" stroke="#1d4e6b"></path><path d="M900 69L900 0L789 0Z" fill="#0c2435" stroke="#0c2435"></path><path d="M129 0L0 0L130 98Z" fill="#246688" stroke="#246688"></path></g></svg>